<?xml version="1.0" standalone="no"?>
<!DOCTYPE svg PUBLIC "-//W3C//DTD SVG 20010904//EN"
 "http://www.w3.org/TR/2001/REC-SVG-20010904/DTD/svg10.dtd">
<svg version="1.0" xmlns="http://www.w3.org/2000/svg"
 width="1813.000000pt" height="1813.000000pt" viewBox="0 0 1813.000000 1813.000000"
 preserveAspectRatio="xMidYMid meet">
<metadata>
Created by potrace 1.14, written by Peter Selinger 2001-2017
</metadata>
<g transform="translate(0.000000,1813.000000) scale(0.100000,-0.100000)"
fill="#000000" stroke="none">
<path d="M2078 16942 c-46 -53 -88 -101 -94 -107 -6 -5 -53 -59 -105 -120 -51
-60 -98 -113 -104 -117 -5 -4 -79 -8 -163 -8 -150 0 -153 -1 -178 -25 -14 -14
-26 -25 -28 -25 -1 0 -3 64 -5 142 -1 78 -4 144 -6 146 -4 4 -31 -24 -88 -92
-23 -27 -55 -63 -72 -81 -16 -18 -39 -44 -50 -57 -63 -75 -132 -155 -143 -167
-7 -7 -52 -59 -100 -115 -48 -55 -91 -106 -97 -112 -5 -6 -31 -35 -57 -65 -26
-30 -60 -70 -77 -89 -17 -19 -31 -39 -32 -45 -1 -19 -7 -41 -46 -180 -22 -77
-66 -234 -98 -350 -31 -115 -65 -239 -76 -275 -25 -87 -67 -240 -124 -445 -25
-93 -52 -190 -60 -215 -7 -25 -37 -130 -65 -235 -29 -104 -85 -307 -125 -450
l-73 -261 3 -199 c2 -110 7 -369 10 -575 l7 -375 108 -300 c60 -165 115 -316
121 -335 7 -19 16 -44 20 -55 10 -23 53 -138 54 -145 1 -3 4 -12 7 -20 9 -22
87 -240 100 -275 5 -16 14 -39 18 -50 5 -11 20 -51 33 -90 14 -38 48 -133 77
-210 28 -77 63 -171 76 -210 14 -38 29 -79 34 -90 8 -22 48 -130 76 -210 22
-65 32 -75 48 -52 7 9 37 44 66 77 l53 60 311 0 c227 0 315 3 324 12 6 6 14 9
17 6 4 -3 8 -84 11 -179 3 -95 7 -175 9 -178 2 -2 103 -5 223 -8 l219 -4 49
58 c27 32 54 63 59 68 6 6 36 39 66 75 29 36 57 67 60 70 3 3 34 39 69 80 35
41 67 77 70 80 3 3 32 37 65 75 33 39 74 86 91 105 18 19 66 75 107 123 71 84
76 92 82 150 4 34 9 70 10 79 2 9 6 45 10 79 4 35 8 66 10 69 1 3 6 28 9 55 4
28 12 70 17 95 14 58 18 79 24 111 8 42 74 240 96 289 12 25 28 61 37 80 30
68 49 87 94 95 24 4 48 9 53 10 64 17 288 46 470 60 44 3 103 8 130 10 87 8
342 20 585 30 250 9 406 14 1045 30 94 2 287 7 430 11 315 8 1883 11 1896 4 5
-4 10 -86 12 -184 4 -173 3 -178 -17 -187 -12 -4 -73 -28 -136 -52 -144 -56
-211 -87 -328 -154 -228 -131 -452 -319 -665 -557 -44 -50 -83 -93 -87 -96 -3
-3 -16 -18 -28 -34 -12 -16 -49 -58 -81 -95 -33 -36 -92 -105 -133 -152 -40
-47 -129 -150 -198 -230 -169 -194 -174 -200 -185 -213 -9 -9 -90 -106 -120
-143 -181 -221 -378 -574 -510 -913 -71 -182 -179 -539 -201 -664 -3 -17 -11
-60 -19 -96 -8 -36 -19 -92 -25 -125 -5 -33 -12 -69 -14 -80 -2 -11 -7 -42
-10 -68 -4 -27 -9 -57 -11 -67 -2 -11 -7 -50 -10 -87 -4 -37 -9 -75 -10 -83
-2 -8 -6 -51 -10 -95 -4 -44 -9 -93 -11 -110 -32 -333 -22 -1003 22 -1380 6
-56 20 -162 29 -220 2 -11 6 -45 10 -75 4 -30 9 -58 11 -61 2 -4 6 -24 9 -45
3 -22 14 -82 25 -134 11 -52 23 -108 26 -125 26 -131 121 -454 188 -640 73
-201 230 -538 311 -670 14 -22 29 -49 35 -60 30 -60 249 -377 280 -405 3 -3
30 -34 60 -70 111 -132 282 -293 415 -391 33 -24 64 -48 70 -52 12 -9 108 -70
181 -114 51 -31 198 -103 289 -143 198 -86 502 -179 740 -226 11 -2 43 -8 70
-14 77 -15 106 -20 156 -26 99 -11 104 -15 103 -70 -1 -90 -15 -239 -22 -245
-7 -7 -133 -46 -167 -53 -11 -2 -40 -9 -65 -16 -25 -7 -58 -14 -75 -17 -16 -2
-46 -8 -65 -14 -19 -5 -53 -9 -76 -9 -22 0 -44 -3 -48 -7 -3 -4 -105 -7 -227
-7 l-220 -1 -42 -46 c-23 -26 -76 -87 -118 -135 -42 -49 -87 -100 -99 -114
-12 -14 -40 -47 -63 -74 -23 -27 -46 -54 -52 -60 -5 -6 -39 -45 -75 -86 -36
-41 -67 -77 -70 -80 -3 -3 -32 -36 -65 -75 -33 -38 -74 -86 -92 -105 -18 -19
-33 -44 -34 -55 -1 -23 3 -359 4 -425 1 -35 6 -46 20 -50 10 -3 1215 -5 2679
-4 l2660 0 30 35 c17 19 51 58 77 88 62 73 380 440 450 520 69 79 104 119 130
150 12 13 21 36 22 50 0 28 -3 292 -5 401 l-1 65 -270 1 c-240 1 -281 4 -365
23 -52 12 -102 24 -110 26 -70 15 -173 46 -310 92 -340 115 -499 222 -549 368
-13 39 -26 75 -28 81 -2 6 45 30 104 54 421 166 777 418 1068 756 33 38 62 71
65 74 7 7 182 209 206 238 10 13 33 38 49 56 17 18 49 55 72 82 51 60 76 90
111 129 15 17 53 62 86 100 33 39 67 77 75 86 9 9 23 25 31 35 8 11 42 53 75
94 99 123 141 183 243 345 58 93 210 403 260 532 80 206 158 450 197 621 2 9
11 46 20 81 20 84 41 186 60 301 22 128 23 138 29 190 3 25 8 62 11 83 12 87
14 106 20 187 4 47 8 96 10 109 23 138 23 857 0 1096 -2 22 -6 74 -10 115 -3
41 -8 84 -10 95 -2 11 -7 47 -10 80 -3 33 -8 76 -10 95 -9 57 -26 173 -31 200
-2 14 -7 45 -10 70 -3 25 -8 48 -10 51 -2 4 -6 24 -10 44 -3 21 -8 47 -10 59
-3 11 -7 32 -10 46 -3 14 -7 33 -10 42 -3 10 -7 28 -10 40 -9 49 -13 67 -44
183 -84 320 -201 629 -346 918 -65 129 -75 147 -94 171 -8 10 -14 20 -12 22 4
6 -96 167 -156 254 -56 81 -124 173 -131 180 -3 3 -28 32 -55 65 -121 146
-368 372 -516 472 -241 162 -497 279 -885 403 -36 11 -293 77 -326 84 -13 2
-69 13 -124 24 -55 11 -122 23 -148 27 l-49 8 7 90 c3 50 8 93 10 96 2 3 212
5 467 5 414 -1 620 -4 1173 -19 88 -2 259 -7 380 -10 556 -14 1175 -38 1259
-50 17 -2 76 -7 132 -10 55 -3 109 -7 120 -9 10 -2 53 -7 94 -11 41 -4 84 -9
95 -11 11 -3 36 -6 55 -8 51 -6 189 -35 230 -49 107 -36 253 -151 391 -307
111 -127 323 -457 416 -650 38 -79 116 -293 127 -350 3 -14 7 -34 10 -45 21
-78 60 -284 72 -384 10 -81 16 -88 71 -85 26 1 131 4 233 5 l185 3 35 36 c19
19 58 62 85 94 28 33 59 69 70 81 11 13 42 48 69 79 l48 56 209 0 208 0 26 27
25 28 1 -45 c3 -134 4 -160 9 -160 2 0 14 11 25 23 11 13 43 50 70 82 28 32
55 63 60 69 6 6 37 43 70 81 33 39 62 72 65 75 3 3 32 37 65 75 33 39 74 86
92 105 17 19 83 95 145 167 l114 133 57 172 c295 888 545 1648 582 1763 l44
140 -4 170 c-1 94 -6 349 -10 568 -6 346 -9 405 -25 455 -10 31 -30 98 -45
147 -15 50 -33 108 -41 130 -13 39 -113 360 -118 380 -2 6 -6 17 -9 25 -6 16
-78 251 -102 330 -7 25 -39 126 -70 225 -32 99 -58 185 -59 190 -2 10 -60 195
-116 370 -32 101 -70 222 -75 245 -10 39 -96 303 -103 315 -5 10 -22 -3 -59
-48 -29 -34 -67 -78 -84 -97 -17 -19 -42 -47 -54 -62 l-23 -27 -283 -3 -284
-3 -2 160 c0 88 -1 190 -2 228 l-1 67 -248 0 -248 0 -30 -37 c-16 -20 -36 -44
-45 -52 -8 -9 -55 -63 -105 -121 -49 -57 -96 -111 -104 -120 -14 -15 -38 -43
-159 -184 -23 -27 -48 -54 -54 -61 -7 -6 -27 -30 -45 -53 -19 -23 -44 -52 -55
-65 -126 -138 -114 -99 -122 -422 -3 -154 -8 -311 -10 -350 -2 -38 -7 -119
-10 -180 -3 -60 -7 -119 -9 -130 -3 -19 -11 -20 -122 -22 -494 -7 -966 -14
-1109 -18 -471 -11 -672 -16 -795 -20 -74 -2 -256 -7 -405 -11 -148 -3 -306
-8 -350 -11 -44 -2 -1324 -6 -2845 -8 -2983 -4 -3426 -8 -4470 -40 -74 -2
-225 -7 -335 -10 -110 -4 -245 -8 -300 -10 -55 -2 -185 -6 -290 -10 -485 -16
-676 -24 -706 -31 -54 -10 -315 -13 -374 -4 -102 16 -172 48 -226 102 -53 53
-68 78 -92 148 -13 40 -62 247 -73 308 -2 12 -9 50 -15 85 -6 34 -13 75 -15
90 -2 16 -13 81 -23 145 -17 103 -35 220 -46 301 -2 14 -13 91 -25 171 -11 80
-23 163 -26 185 -3 22 -7 51 -9 65 -2 14 -9 61 -15 106 -6 44 -12 90 -14 101
-3 11 -7 44 -11 74 -11 98 13 89 -240 89 l-224 -1 -83 -97z m5708 -6508 c2
-35 14 -745 29 -1619 3 -198 8 -463 10 -590 2 -126 7 -387 10 -580 3 -192 8
-444 10 -560 2 -115 6 -388 10 -605 3 -217 8 -487 10 -600 3 -177 13 -703 19
-1082 2 -108 1 -116 -15 -107 -28 15 -188 179 -237 244 -25 33 -49 62 -52 65
-27 25 -149 232 -213 365 -139 287 -270 675 -333 989 -2 12 -6 30 -8 41 -32
151 -71 382 -81 475 -3 30 -8 66 -10 80 -9 52 -27 246 -40 425 -27 375 -23
913 10 1255 3 30 8 75 10 100 6 66 23 205 30 250 15 94 35 218 39 236 2 12 7
37 10 55 15 95 87 406 105 459 5 14 19 61 31 105 12 44 28 94 35 110 7 17 27
71 45 120 18 50 46 119 64 155 31 64 32 65 124 111 50 26 100 49 110 53 140
47 259 84 267 82 6 -2 11 -16 11 -32z m2782 -434 c152 -153 332 -412 424 -610
67 -145 91 -201 128 -301 38 -104 96 -282 104 -319 2 -8 5 -22 8 -30 15 -42
88 -371 103 -465 3 -16 7 -41 10 -55 2 -14 7 -43 10 -65 3 -23 7 -50 9 -60 2
-11 7 -47 10 -80 4 -33 9 -67 11 -75 2 -8 7 -46 10 -85 4 -38 8 -81 10 -95 9
-85 20 -234 32 -425 15 -263 8 -988 -12 -1215 -17 -184 -36 -347 -52 -450 -3
-19 -6 -44 -8 -55 -9 -67 -48 -273 -66 -345 -11 -47 -26 -110 -33 -141 -7 -31
-16 -60 -19 -66 -3 -5 -8 -20 -10 -34 -6 -30 -84 -264 -96 -287 -5 -9 -26 -57
-46 -107 -37 -90 -67 -135 -91 -135 -7 0 -14 -4 -16 -9 -9 -25 -376 -170 -430
-171 -12 0 -18 8 -19 23 -1 43 -7 395 -14 762 -3 204 -8 474 -10 600 -4 232
-11 653 -20 1170 -10 571 -15 907 -20 1160 -9 495 -22 1276 -30 1759 l-5 330
32 -30 c17 -16 61 -58 96 -94z"/>
</g>
</svg>
